<?xml version="1.0" encoding="UTF-8" standalone="no"?>
<svg
   xmlns:dc="http://purl.org/dc/elements/1.1/"
   xmlns:cc="http://creativecommons.org/ns#"
   xmlns:rdf="http://www.w3.org/1999/02/22-rdf-syntax-ns#"
   xmlns:svg="http://www.w3.org/2000/svg"
   xmlns="http://www.w3.org/2000/svg"
   xmlns:sodipodi="http://sodipodi.sourceforge.net/DTD/sodipodi-0.dtd"
   xmlns:inkscape="http://www.inkscape.org/namespaces/inkscape"
   viewBox="-10 -10 178 178"
   height="177.523"
   id="svg1"
   inkscape:version="0.46"
   sodipodi:docbase="/mnt/donnees/09-Mes_images/Travaux/Travaux vectoriel/pictogrammes/sécu SVG/produits chimiques"
   sodipodi:docname="bad2.svg"
   sodipodi:version="0.32"
   width="155.932"
   inkscape:output_extension="org.inkscape.output.svg.inkscape">
  <metadata
     id="metadata2540">
    <rdf:RDF>
      <cc:Work
         rdf:about="">
        <dc:title>Irritant</dc:title>
        <dc:description>produit chimique</dc:description>
        <dc:subject>
          <rdf:Bag>
            <rdf:li />
            <rdf:li>symbol</rdf:li>
            <rdf:li>signs_and_symbols</rdf:li>
          </rdf:Bag>
        </dc:subject>
        <dc:publisher>
          <cc:Agent
             rdf:about="http://www.openclipart.org">
            <dc:title>yves GUILLOU</dc:title>
          </cc:Agent>
        </dc:publisher>
        <dc:creator>
          <cc:Agent>
            <dc:title>yves GUILLOU</dc:title>
          </cc:Agent>
        </dc:creator>
        <dc:rights>
          <cc:Agent>
            <dc:title>yves GUILLOU</dc:title>
          </cc:Agent>
        </dc:rights>
        <dc:date />
        <dc:format>image/svg+xml</dc:format>
        <dc:type
           rdf:resource="http://purl.org/dc/dcmitype/StillImage" />
        <cc:license
           rdf:resource="http://web.resource.org/cc/PublicDomain" />
        <dc:language>en</dc:language>
      </cc:Work>
      <cc:License
         rdf:about="http://web.resource.org/cc/PublicDomain">
        <cc:permits
           rdf:resource="http://web.resource.org/cc/Reproduction" />
        <cc:permits
           rdf:resource="http://web.resource.org/cc/Distribution" />
        <cc:permits
           rdf:resource="http://web.resource.org/cc/DerivativeWorks" />
      </cc:License>
    </rdf:RDF>
  </metadata>
  <sodipodi:namedview
     bordercolor="#666666"
     borderopacity="1.0"
     id="base"
     inkscape:current-layer="svg1"
     inkscape:cx="62.372805"
     inkscape:cy="136.50417"
     inkscape:pageopacity="0.0"
     inkscape:pageshadow="2"
     inkscape:window-height="725"
     inkscape:window-width="1279"
     inkscape:window-x="0"
     inkscape:window-y="25"
     inkscape:zoom="6.6399849"
     pagecolor="#ffffff"
     showgrid="false" />
  <defs
     id="defs2">
    <inkscape:perspective
       sodipodi:type="inkscape:persp3d"
       inkscape:vp_x="0 : 88.761497 : 1"
       inkscape:vp_y="0 : 1000 : 0"
       inkscape:vp_z="155.93201 : 88.761497 : 1"
       inkscape:persp3d-origin="77.966003 : 59.174332 : 1"
       id="perspective2555" />
    <marker
       id="ArrowEnd"
       markerHeight="3"
       markerUnits="strokeWidth"
       markerWidth="4"
       orient="auto"
       refX="0"
       refY="5"
       viewBox="0 0 10 10">
      <path
         d="M 0 0 L 10 5 L 0 10 z"
         id="path4" />
    </marker>
    <marker
       id="ArrowStart"
       markerHeight="3"
       markerUnits="strokeWidth"
       markerWidth="4"
       orient="auto"
       refX="10"
       refY="5"
       viewBox="0 0 10 10">
      <path
         d="M 10 0 L 0 5 L 10 10 z"
         id="path6" />
    </marker>
  </defs>
  <g
     id="g7">
    <g
       id="g8">
      <path
         d="M 155.932 155.932L 155.932 0L 0 0L 0 155.932L 155.932 155.932z"
         id="path9"
         style="stroke:none; fill:#000000" />
      <path
         d="M 150.83 150.83L 150.83 5.1011L 5.1011 5.1011L 5.1011 150.83L 150.83 150.83z"
         id="path10"
         style="stroke:none; fill:#ff9900" />
    </g>
    <g
       id="g11">
      <path
         d="M 140.823 111.783L 44.3677 14.0771L 15.1084 44.1489L 111.564 141.854L 140.823 111.783z"
         id="path12"
         style="stroke:none; fill:#000000" />
      <path
         d="M 111.783 15.1084L 14.0771 111.564L 44.1489 140.823L 141.855 44.3677L 111.783 15.1084z"
         id="path13"
         style="stroke:none; fill:#000000" />
    </g>
  </g>
  <path
     style="fill:#008080"
     d="M 13.366669,84.330012 L 13.366669,24.01361 L 77.071634,24.01361 L 140.7766,24.01361 L 140.7766,84.330012 L 140.7766,144.64641 L 77.071634,144.64641 L 13.366669,144.64641 L 13.366669,84.330012 z M 120.36495,129.67409 L 132.21436,117.48791 L 129.66981,114.91502 C 111.90914,96.956535 103.27651,88.167319 103.27651,88.042959 C 103.27651,87.959944 109.98853,81.265255 118.19212,73.165878 L 133.10774,58.439738 L 131.33221,56.683657 C 130.35567,55.717813 124.41623,49.928458 118.13344,43.818424 L 106.71019,32.709275 L 105.33221,34.062443 C 104.57432,34.806684 97.968473,41.321565 90.652538,48.539953 C 83.336618,55.758343 77.297146,61.664298 77.231498,61.664298 C 77.165851,61.664298 70.67174,55.141316 62.800128,47.168783 C 54.928517,39.19625 48.287485,32.483477 48.042278,32.25151 L 47.596449,31.829753 L 34.811393,44.961353 C 27.779604,52.183734 22.009132,58.13484 21.988115,58.186032 C 21.967096,58.237225 28.456193,64.868112 36.408329,72.921339 C 44.360461,80.974565 50.866755,87.620309 50.866755,87.68966 C 50.866755,87.759011 45.055371,93.550026 37.952569,100.55858 C 30.849766,107.56714 24.137614,114.20751 23.036675,115.31497 L 21.034973,117.32852 L 34.23039,130.16618 L 47.425816,143.00382 L 51.970087,138.52939 C 54.469438,136.06846 61.097347,129.52546 66.698779,123.9894 L 76.883199,113.92384 L 91.686953,128.9192 L 106.49072,143.91456 L 107.50313,142.88741 C 108.05997,142.32248 113.8478,136.37648 120.36497,129.67409 L 120.36495,129.67409 z"
     id="path2557"
     transform="matrix(1.1415232,0,0,1.1415232,-10,-22.323307)" />
  <path
     style="fill:#008080"
     d="M 13.366669,148.1275 L 13.366669,144.66364 L 77.071634,144.66364 L 140.7766,144.66364 L 140.7766,148.1275 L 140.7766,151.59136 L 77.071634,151.59136 L 13.366669,151.59136 L 13.366669,148.1275 z"
     id="path2559"
     transform="matrix(1.1415232,0,0,1.1415232,-10,-22.323307)" />
  <path
     style="fill:#008080"
     d="M 45.181501,144.55068 C 62.721074,144.52959 91.422193,144.52959 108.96177,144.55069 C 126.50134,144.57178 112.15078,144.58904 77.071634,144.58904 C 41.992488,144.58904 27.641928,144.57178 45.181501,144.55069 L 45.181501,144.55068 z"
     id="path2561"
     transform="matrix(1.1415232,0,0,1.1415232,-10,-22.323307)" />
</svg>
